<?xml version="1.0" encoding="utf-8"?>
<!-- Generator: Adobe Illustrator 24.0.1, SVG Export Plug-In . SVG Version: 6.00 Build 0)  -->
<svg version="1.1" id="Layer_1" xmlns="http://www.w3.org/2000/svg" xmlns:xlink="http://www.w3.org/1999/xlink" x="0px" y="0px"
	 viewBox="0 0 343.8 151.1" style="enable-background:new 0 0 343.8 151.1;" xml:space="preserve">
<g>
	<path d="M343.8,35H235.4C222,14,198.4,0,171.6,0s-50.4,14-63.8,35H0l11,11h91.1c-1.7,4-3,8.1-4,12.4H23.3l11,11h62
		c-0.2,2-0.3,4.1-0.3,6.1c0,2.1,0.1,4.2,0.3,6.3H46.7l11,11h40.4c1,4.3,2.3,8.4,4,12.4H70l11,11h27c13.4,21,36.9,34.9,63.7,34.9
		s50.3-13.9,63.7-34.9h27.6l11-11h-32.7c1.7-4,3-8.1,4-12.4h41l11-11h-50.3c0.2-2.1,0.3-4.1,0.3-6.3c0-2.1-0.1-4.1-0.3-6.1h62.6
		l11-11h-75.3c-1-4.3-2.3-8.4-4-12.4h91.7L343.8,35z M171.9,140.2c-35.6,0-64.5-28.9-64.5-64.5s28.9-64.5,64.5-64.5
		s64.5,28.9,64.5,64.5S207.5,140.2,171.9,140.2z"/>
	<polygon points="138.7,85 130,58.6 120.1,58.6 120.1,92.6 127.3,92.6 127.3,67.4 134.9,92.6 142.5,92.6 150.1,67.4 150.1,92.6 
		157.4,92.6 157.4,58.6 147.4,58.6 	"/>
	<polygon points="201.9,83.5 188.2,58.6 180.2,58.6 180.2,92.6 187,92.6 187,68.7 200.6,92.8 208.7,92.6 208.7,58.6 202,58.6 	"/>
	<rect x="165.3" y="58.5" width="6.9" height="34"/>
	<rect x="216.6" y="58.5" width="6.9" height="34"/>
</g>
</svg>
